<svg xmlns="http://www.w3.org/2000/svg" width="1800" height="1985" viewBox="0 0 1800 1985" role="img" aria-labelledby="title desc">
<title id="title">Global transport benchmark: control channels and media</title>
<desc id="desc">Application control round-trip time and capture-to-decoded-frame media performance for self-hosted MoQ, PulseBeam, Cloudflare SFU, and the moq.dev public demo CDN from California to Virginia, Frankfurt, and Tokyo. A separately dated Cloudflare Managed MoQ extension is summarized without merging it into the matched matrix.</desc>
<defs>
  <linearGradient id="bg" x1="0" y1="0" x2="1" y2="1"><stop offset="0" stop-color="#07111d"/><stop offset="1" stop-color="#0b1928"/></linearGradient>
  <filter id="shadow" x="-10%" y="-10%" width="120%" height="135%"><feDropShadow dx="0" dy="8" stdDeviation="12" flood-color="#020812" flood-opacity=".34"/></filter>
  <marker id="arrow" markerWidth="10" markerHeight="10" refX="8" refY="3" orient="auto"><path d="M0,0 L0,6 L9,3 z" fill="#627d96"/></marker>
  <style>
    .title{font:700 44px Inter,-apple-system,BlinkMacSystemFont,"Segoe UI",sans-serif;fill:#f4f8fb;letter-spacing:-.8px}
    .subtitle{font:400 18px Inter,-apple-system,BlinkMacSystemFont,"Segoe UI",sans-serif;fill:#91a5b9}
    .eyebrow{font:650 13px Inter,-apple-system,BlinkMacSystemFont,"Segoe UI",sans-serif;fill:#91a5b9;letter-spacing:1.15px}
    .topology{font:650 16px Inter,-apple-system,BlinkMacSystemFont,"Segoe UI",sans-serif;fill:#f4f8fb}
    .topology-sub{font:400 12px Inter,-apple-system,BlinkMacSystemFont,"Segoe UI",sans-serif;fill:#91a5b9}
    .region{font:700 25px Inter,-apple-system,BlinkMacSystemFont,"Segoe UI",sans-serif;fill:#f4f8fb}
    .region-sub{font:400 13px Inter,-apple-system,BlinkMacSystemFont,"Segoe UI",sans-serif;fill:#91a5b9}
    .section{font:650 14px Inter,-apple-system,BlinkMacSystemFont,"Segoe UI",sans-serif;fill:#dce7f0;letter-spacing:.9px}
    .provider{font:650 16px Inter,-apple-system,BlinkMacSystemFont,"Segoe UI",sans-serif;fill:#f4f8fb}
    .qualifier{font:400 11.5px Inter,-apple-system,BlinkMacSystemFont,"Segoe UI",sans-serif;fill:#91a5b9}
    .metric{font:650 14px "SFMono-Regular",Consolas,monospace;fill:#e8eff5}
    .detail{font:400 11.5px Inter,-apple-system,BlinkMacSystemFont,"Segoe UI",sans-serif;fill:#91a5b9}
    .axis{font:500 10.5px Inter,-apple-system,BlinkMacSystemFont,"Segoe UI",sans-serif;fill:#71869a}
    .summary-name{font:650 16px Inter,-apple-system,BlinkMacSystemFont,"Segoe UI",sans-serif;fill:#f4f8fb}
    .summary-value{font:700 25px Inter,-apple-system,BlinkMacSystemFont,"Segoe UI",sans-serif;fill:#f4f8fb}
    .summary-detail{font:400 12px Inter,-apple-system,BlinkMacSystemFont,"Segoe UI",sans-serif;fill:#91a5b9}
    .verdict{font:650 18px Inter,-apple-system,BlinkMacSystemFont,"Segoe UI",sans-serif;fill:#f4f8fb}
    .note{font:400 11.5px Inter,-apple-system,BlinkMacSystemFont,"Segoe UI",sans-serif;fill:#71869a}
    .grid{stroke:#294158;stroke-width:1;opacity:.58}.divider{stroke:#20384d;stroke-width:1}.track{stroke:#30485e;stroke-width:2}
  </style>
</defs>
<rect width="1800" height="1985" fill="url(#bg)"/>
<text class="title" x="55" y="67">Global transport benchmark</text>
<text class="subtitle" x="55" y="101">Control + headless glass-to-glass media · California → Virginia / Frankfurt / Tokyo · latency and completion shown together</text>
<g transform="translate(55 125)"><rect width="1690" height="125" rx="18" fill="#0d1d2e" stroke="#1c344a" filter="url(#shadow)"/>
<text class="eyebrow" x="24" y="27">MATCHED GCP ENDPOINTS · ONE SUBSCRIBER REGION ACTIVE AT A TIME</text>
<rect x="24" y="43" width="265" height="63" rx="12" fill="#11263a" stroke="#29455e"/>
<text class="topology" x="38" y="69">California publisher</text><text class="topology-sub" x="38" y="90">us-west2-a · c3-standard-4</text>
<rect x="325" y="43" width="265" height="63" rx="12" fill="#11263a" stroke="#29455e"/>
<text class="topology" x="339" y="69">California relay</text><text class="topology-sub" x="339" y="90">self-hosted MoQ / PulseBeam</text>
<line x1="289" y1="76" x2="319" y2="76" stroke="#627d96" stroke-width="2" marker-end="url(#arrow)"/>
<line x1="590" y1="76" x2="742" y2="76" stroke="#627d96" stroke-width="2" marker-end="url(#arrow)"/>
<text class="topology-sub" x="666" y="61" text-anchor="middle">sequential</text><text class="topology-sub" x="666" y="98" text-anchor="middle">rotation</text>
<rect x="780" y="43" width="244" height="63" rx="12" fill="#11263a" stroke="#29455e"/>
<text class="topology" x="794" y="69">Virginia</text><text class="topology-sub" x="794" y="90">us-east4-a</text>
<rect x="1100" y="43" width="244" height="63" rx="12" fill="#11263a" stroke="#29455e"/>
<text class="topology" x="1114" y="69">Frankfurt</text><text class="topology-sub" x="1114" y="90">europe-west3-a</text>
<rect x="1420" y="43" width="244" height="63" rx="12" fill="#11263a" stroke="#29455e"/>
<text class="topology" x="1434" y="69">Tokyo</text><text class="topology-sub" x="1434" y="90">asia-northeast1-b</text>
<text class="topology-sub" x="1040" y="116" text-anchor="middle">Cloudflare SFU and moq.dev use their managed/public edge routes from the same endpoint VMs</text>
</g>
<g transform="translate(55 270)"><rect width="1690" height="78" rx="16" fill="#10263a" stroke="#356987"/>
<rect x="22" y="20" width="11" height="38" rx="5" fill="#42bff5"/>
<text class="section" x="50" y="31">CLOUDFLARE MANAGED MOQ · SEPARATE JULY 20 EXTENSION</text>
<text class="detail" x="50" y="55">Media 8/9 trials completed · 71,999/72,000 frames across completed trials · 120 Hz control loss observed in 3/3 corridors.</text>
<text class="detail" x="1665" y="44" text-anchor="end">draft-14 managed endpoint</text></g>
<g transform="translate(55 375)"><rect width="540" height="1220" rx="20" fill="#0d1d2e" stroke="#1c344a" filter="url(#shadow)"/>
<text class="region" x="25" y="42">California → Virginia</text>
<text class="region-sub" x="25" y="65">us-east4-a · control marks: circle P50 · diamond P99 · end tick max</text>
<text class="section" x="25" y="103">CONTROL · APPLICATION RTT</text>
<text class="axis" x="515" y="103" text-anchor="end">120 Hz · 5 min · log scale</text>
<line class="track" x1="195" y1="130" x2="505" y2="130"/>
<line class="grid" x1="195" y1="123" x2="195" y2="550"/>
<text class="axis" x="195" y="118" text-anchor="middle">50</text>
<line class="grid" x1="249.926984242023" y1="123" x2="249.926984242023" y2="550"/>
<text class="axis" x="249.926984242023" y="118" text-anchor="middle">100</text>
<line class="grid" x1="304.8539684840459" y1="123" x2="304.8539684840459" y2="550"/>
<text class="axis" x="304.8539684840459" y="118" text-anchor="middle">200</text>
<line class="grid" x1="377.4634921210114" y1="123" x2="377.4634921210114" y2="550"/>
<text class="axis" x="377.4634921210114" y="118" text-anchor="middle">500</text>
<line class="grid" x1="432.3904763630344" y1="123" x2="432.3904763630344" y2="550"/>
<text class="axis" x="432.3904763630344" y="118" text-anchor="middle">1000</text>
<line class="grid" x1="505" y1="123" x2="505" y2="550"/>
<text class="axis" x="505" y="118" text-anchor="middle">2500</text>
<rect x="25" y="158" width="11" height="11" rx="2" fill="#35d3a4"/><text class="provider" x="47" y="169">MoQ</text>
<text class="qualifier" x="47" y="189">QUIC datagram · 1,100 B · unreliable</text>
<line x1="212.02404373378198" y1="205" x2="223.9101089344563" y2="205" stroke="#35d3a4" stroke-width="4" stroke-linecap="round" opacity=".58"/>
<circle cx="212.02404373378198" cy="205" r="7" fill="#35d3a4" stroke="#0d1d2e" stroke-width="3"/>
<polygon points="213.32927090543916,197 221.32927090543916,205 213.32927090543916,213 205.32927090543916,205" fill="#35d3a4" stroke="#0d1d2e" stroke-width="2"/>
<line x1="223.9101089344563" y1="195" x2="223.9101089344563" y2="215" stroke="#35d3a4" stroke-width="3"/>
<text class="metric" x="47" y="237">62 / 63 / 72 ms</text>
<text class="detail" x="47" y="257">P50 / P99 / max · 35,999/36,000 · 0.0028% loss</text>
<rect x="25" y="256" width="11" height="11" rx="2" fill="#42bff5"/><text class="provider" x="47" y="267">PulseBeam</text>
<text class="qualifier" x="47" y="287">WebRTC DataChannel · 1,200 B · unordered / 0 retransmits</text>
<line x1="227.06444301384101" y1="303" x2="287.0764788682111" y2="303" stroke="#42bff5" stroke-width="4" stroke-linecap="round" opacity=".58"/>
<circle cx="227.06444301384101" cy="303" r="7" fill="#42bff5" stroke="#0d1d2e" stroke-width="3"/>
<polygon points="236.92811776505334,295 244.92811776505334,303 236.92811776505334,311 228.92811776505334,303" fill="#42bff5" stroke="#0d1d2e" stroke-width="2"/>
<line x1="287.0764788682111" y1="293" x2="287.0764788682111" y2="313" stroke="#42bff5" stroke-width="3"/>
<text class="metric" x="47" y="335">74.9 / 84.9 / 159.8 ms</text>
<text class="detail" x="47" y="355">P50 / P99 / max · 36,000/36,000 · 0% loss</text>
<rect x="25" y="354" width="11" height="11" rx="2" fill="#f5a742"/><text class="provider" x="47" y="365">Cloudflare SFU</text>
<text class="qualifier" x="47" y="385">WebRTC DataChannel · 1,200 B · unordered / 0 retransmits</text>
<line x1="214.65292057644388" y1="401" x2="304.84429431802164" y2="401" stroke="#f5a742" stroke-width="4" stroke-linecap="round" opacity=".58"/>
<circle cx="214.65292057644388" cy="401" r="7" fill="#f5a742" stroke="#0d1d2e" stroke-width="3"/>
<polygon points="279.5673420802964,393 287.5673420802964,401 279.5673420802964,409 271.5673420802964,401" fill="#f5a742" stroke="#0d1d2e" stroke-width="2"/>
<line x1="304.84429431802164" y1="391" x2="304.84429431802164" y2="411" stroke="#f5a742" stroke-width="3"/>
<text class="metric" x="47" y="433">64.1 / 145.4 / 200 ms</text>
<text class="detail" x="47" y="453">P50 / P99 / max · 35,997/36,000 · 0.0083% loss</text>
<rect x="25" y="452" width="11" height="11" rx="2" fill="#c58cff"/><text class="provider" x="47" y="463">moq.dev CDN</text>
<text class="qualifier" x="47" y="483">latest-state groups · 1,100 B · pinned CA ingress</text>
<line x1="225.4598882127555" y1="499" x2="294.1707593067416" y2="499" stroke="#c58cff" stroke-width="4" stroke-linecap="round" opacity=".58"/>
<circle cx="225.4598882127555" cy="499" r="7" fill="#c58cff" stroke="#0d1d2e" stroke-width="3"/>
<polygon points="226.21640045657927,491 234.21640045657927,499 226.21640045657927,507 218.21640045657927,499" fill="#c58cff" stroke="#0d1d2e" stroke-width="2"/>
<line x1="294.1707593067416" y1="489" x2="294.1707593067416" y2="509" stroke="#c58cff" stroke-width="3"/>
<text class="metric" x="47" y="531">73.4 / 74.1 / 174.8 ms</text>
<text class="detail" x="47" y="551">P50 / P99 / max · 36,000/36,000 · 0% loss · 19 reordered</text>
<line class="divider" x1="25" y1="575" x2="515" y2="575"/>
<text class="section" x="25" y="612">MEDIA · CAPTURE TO DECODE</text>
<text class="axis" x="515" y="612" text-anchor="end">720p30 H.264 · strict 4 Mbps · 5 min/trial</text>
<line class="track" x1="195" y1="640" x2="505" y2="640"/>
<line class="grid" x1="195" y1="633" x2="195" y2="1100"/>
<text class="axis" x="195" y="628" text-anchor="middle">160</text>
<line class="grid" x1="272.5" y1="633" x2="272.5" y2="1100"/>
<text class="axis" x="272.5" y="628" text-anchor="middle">200</text>
<line class="grid" x1="350" y1="633" x2="350" y2="1100"/>
<text class="axis" x="350" y="628" text-anchor="middle">240</text>
<line class="grid" x1="427.5" y1="633" x2="427.5" y2="1100"/>
<text class="axis" x="427.5" y="628" text-anchor="middle">280</text>
<line class="grid" x1="505" y1="633" x2="505" y2="1100"/>
<text class="axis" x="505" y="628" text-anchor="middle">320</text>
<rect x="25" y="668" width="11" height="11" rx="2" fill="#35d3a4"/><text class="provider" x="47" y="679">MoQ</text>
<text class="qualifier" x="47" y="699">CMAF over MoQ · self-hosted</text>
<line x1="231.459875" y1="715" x2="244.20703624999993" y2="715" stroke="#35d3a4" stroke-width="6" stroke-linecap="round" opacity=".65"/>
<circle cx="231.459875" cy="715" r="7" fill="#35d3a4" stroke="#0d1d2e" stroke-width="3"/>
<polygon points="244.20703624999993,707 252.20703624999993,715 244.20703624999993,723 236.20703624999993,715" fill="#35d3a4" stroke="#0d1d2e" stroke-width="2"/>
<text class="metric" x="47" y="747">178.8 / 185.4 / 263.6 ms</text>
<text class="detail" x="47" y="767">P50 / P99 / max · 27,000/27,000 · 0% loss</text>
<text class="detail" x="47" y="786">0 invalid markers · 0 freezes &gt;250 ms · join P50 714 ms</text>
<rect x="25" y="786" width="11" height="11" rx="2" fill="#42bff5"/><text class="provider" x="47" y="797">PulseBeam</text>
<text class="qualifier" x="47" y="817">H.264 RTP · 5 Mbps BWE variant</text>
<line x1="273.294375" y1="833" x2="287.18675375000004" y2="833" stroke="#42bff5" stroke-width="6" stroke-linecap="round" opacity=".65"/>
<circle cx="273.294375" cy="833" r="7" fill="#42bff5" stroke="#0d1d2e" stroke-width="3"/>
<polygon points="287.18675375000004,825 295.18675375000004,833 287.18675375000004,841 279.18675375000004,833" fill="#42bff5" stroke="#0d1d2e" stroke-width="2"/>
<text class="metric" x="47" y="865">200.4 / 207.6 / 294.8 ms</text>
<text class="detail" x="47" y="885">P50 / P99 / max · 26,975/27,000 · 0.0926% loss</text>
<text class="detail" x="47" y="904">24 invalid markers · 1 freezes &gt;250 ms · join P50 2,627 ms</text>
<rect x="25" y="904" width="11" height="11" rx="2" fill="#f5a742"/><text class="provider" x="47" y="915">Cloudflare SFU</text>
<text class="qualifier" x="47" y="935">H.264 RTP · managed SFU</text>
<line x1="237.12125000000003" y1="951" x2="254.94361499999997" y2="951" stroke="#f5a742" stroke-width="6" stroke-linecap="round" opacity=".65"/>
<circle cx="237.12125000000003" cy="951" r="7" fill="#f5a742" stroke="#0d1d2e" stroke-width="3"/>
<polygon points="254.94361499999997,943 262.94361499999997,951 254.94361499999997,959 246.94361499999997,951" fill="#f5a742" stroke="#0d1d2e" stroke-width="2"/>
<text class="metric" x="47" y="983">181.7 / 190.9 / 268.9 ms</text>
<text class="detail" x="47" y="1003">P50 / P99 / max · 26,869/27,000 · 0.4852% loss</text>
<text class="detail" x="47" y="1022">118 invalid markers · 5 freezes &gt;250 ms · join P50 3,322 ms</text>
<rect x="25" y="1022" width="11" height="11" rx="2" fill="#c58cff"/><text class="provider" x="47" y="1033">moq.dev CDN</text>
<text class="qualifier" x="47" y="1053">fMP4 over MoQ · public demo CDN</text>
<line x1="336.72134375" y1="1069" x2="482.426575" y2="1069" stroke="#c58cff" stroke-width="6" stroke-linecap="round" opacity=".65"/>
<circle cx="336.72134375" cy="1069" r="7" fill="#c58cff" stroke="#0d1d2e" stroke-width="3"/>
<polygon points="482.426575,1061 490.426575,1069 482.426575,1077 474.426575,1069" fill="#c58cff" stroke="#0d1d2e" stroke-width="2"/>
<text class="metric" x="47" y="1101">233.1 / 308.3 / 393.4 ms</text>
<text class="detail" x="47" y="1121">P50 / P99 / max · 27,000/27,000 · 0% loss · 3/3 trials complete</text>
<text class="detail" x="47" y="1140">0 invalid markers · 0 freezes &gt;250 ms · join P50 868 ms</text>
<line class="divider" x1="25" y1="1164" x2="515" y2="1164"/>
<text class="detail" x="25" y="1192">Self-hosted MoQ lead: control P99 11.1 ms · media P99 5.5 ms · moq.dev 3/3 media complete</text>
</g>
<g transform="translate(630 375)"><rect width="540" height="1220" rx="20" fill="#0d1d2e" stroke="#1c344a" filter="url(#shadow)"/>
<text class="region" x="25" y="42">California → Frankfurt</text>
<text class="region-sub" x="25" y="65">europe-west3-a · control marks: circle P50 · diamond P99 · end tick max</text>
<text class="section" x="25" y="103">CONTROL · APPLICATION RTT</text>
<text class="axis" x="515" y="103" text-anchor="end">120 Hz · 5 min · log scale</text>
<line class="track" x1="195" y1="130" x2="505" y2="130"/>
<line class="grid" x1="195" y1="123" x2="195" y2="550"/>
<text class="axis" x="195" y="118" text-anchor="middle">50</text>
<line class="grid" x1="249.926984242023" y1="123" x2="249.926984242023" y2="550"/>
<text class="axis" x="249.926984242023" y="118" text-anchor="middle">100</text>
<line class="grid" x1="304.8539684840459" y1="123" x2="304.8539684840459" y2="550"/>
<text class="axis" x="304.8539684840459" y="118" text-anchor="middle">200</text>
<line class="grid" x1="377.4634921210114" y1="123" x2="377.4634921210114" y2="550"/>
<text class="axis" x="377.4634921210114" y="118" text-anchor="middle">500</text>
<line class="grid" x1="432.3904763630344" y1="123" x2="432.3904763630344" y2="550"/>
<text class="axis" x="432.3904763630344" y="118" text-anchor="middle">1000</text>
<line class="grid" x1="505" y1="123" x2="505" y2="550"/>
<text class="axis" x="505" y="118" text-anchor="middle">2500</text>
<rect x="25" y="158" width="11" height="11" rx="2" fill="#35d3a4"/><text class="provider" x="47" y="169">MoQ</text>
<text class="qualifier" x="47" y="189">QUIC datagram · 1,100 B · unreliable</text>
<line x1="281.95457424580184" y1="205" x2="284.7695966981291" y2="205" stroke="#35d3a4" stroke-width="4" stroke-linecap="round" opacity=".58"/>
<circle cx="281.95457424580184" cy="205" r="7" fill="#35d3a4" stroke="#0d1d2e" stroke-width="3"/>
<polygon points="282.8110968242599,197 290.8110968242599,205 282.8110968242599,213 274.8110968242599,205" fill="#35d3a4" stroke="#0d1d2e" stroke-width="2"/>
<line x1="284.7695966981291" y1="195" x2="284.7695966981291" y2="215" stroke="#35d3a4" stroke-width="3"/>
<text class="metric" x="47" y="237">149.8 / 151.4 / 155.2 ms</text>
<text class="detail" x="47" y="257">P50 / P99 / max · 36,000/36,000 · 0% loss</text>
<rect x="25" y="256" width="11" height="11" rx="2" fill="#42bff5"/><text class="provider" x="47" y="267">PulseBeam</text>
<text class="qualifier" x="47" y="287">WebRTC DataChannel · 1,200 B · unordered / 0 retransmits</text>
<line x1="286.56117473089296" y1="303" x2="298.3573501790155" y2="303" stroke="#42bff5" stroke-width="4" stroke-linecap="round" opacity=".58"/>
<circle cx="286.56117473089296" cy="303" r="7" fill="#42bff5" stroke="#0d1d2e" stroke-width="3"/>
<polygon points="294.34769356339143,295 302.34769356339143,303 294.34769356339143,311 286.34769356339143,303" fill="#42bff5" stroke="#0d1d2e" stroke-width="2"/>
<line x1="298.3573501790155" y1="293" x2="298.3573501790155" y2="313" stroke="#42bff5" stroke-width="3"/>
<text class="metric" x="47" y="335">158.8 / 175.2 / 184.3 ms</text>
<text class="detail" x="47" y="355">P50 / P99 / max · 36,000/36,000 · 0% loss</text>
<rect x="25" y="354" width="11" height="11" rx="2" fill="#f5a742"/><text class="provider" x="47" y="365">Cloudflare SFU</text>
<text class="qualifier" x="47" y="385">WebRTC DataChannel · 1,200 B · unordered / 0 retransmits</text>
<line x1="286.3489390557075" y1="401" x2="402.93800313711836" y2="401" stroke="#f5a742" stroke-width="4" stroke-linecap="round" opacity=".58"/>
<circle cx="286.3489390557075" cy="401" r="7" fill="#f5a742" stroke="#0d1d2e" stroke-width="3"/>
<polygon points="379.45113956389287,393 387.45113956389287,401 379.45113956389287,409 371.45113956389287,401" fill="#f5a742" stroke="#0d1d2e" stroke-width="2"/>
<line x1="402.93800313711836" y1="391" x2="402.93800313711836" y2="411" stroke="#f5a742" stroke-width="3"/>
<text class="metric" x="47" y="433">158.3 / 512.7 / 689.6 ms</text>
<text class="detail" x="47" y="453">P50 / P99 / max · 35,997/36,000 · 0.0083% loss</text>
<rect x="25" y="452" width="11" height="11" rx="2" fill="#c58cff"/><text class="provider" x="47" y="463">moq.dev CDN</text>
<text class="qualifier" x="47" y="483">latest-state groups · 1,100 B · pinned CA ingress</text>
<line x1="285.01771866671834" y1="499" x2="495.55448958981674" y2="499" stroke="#c58cff" stroke-width="4" stroke-linecap="round" opacity=".58"/>
<circle cx="285.01771866671834" cy="499" r="7" fill="#c58cff" stroke="#0d1d2e" stroke-width="3"/>
<polygon points="297.5659475774681,491 305.5659475774681,499 297.5659475774681,507 289.5659475774681,499" fill="#c58cff" stroke="#0d1d2e" stroke-width="2"/>
<line x1="495.55448958981674" y1="489" x2="495.55448958981674" y2="509" stroke="#c58cff" stroke-width="3"/>
<text class="metric" x="47" y="531">155.7 / 182.4 / 2219.1 ms</text>
<text class="detail" x="47" y="551">P50 / P99 / max · 36,000/36,000 · 0% loss · 290 reordered</text>
<line class="divider" x1="25" y1="575" x2="515" y2="575"/>
<text class="section" x="25" y="612">MEDIA · CAPTURE TO DECODE</text>
<text class="axis" x="515" y="612" text-anchor="end">720p30 H.264 · strict 4 Mbps · 5 min/trial</text>
<line class="track" x1="195" y1="640" x2="505" y2="640"/>
<line class="grid" x1="195" y1="633" x2="195" y2="1100"/>
<text class="axis" x="195" y="628" text-anchor="middle">160</text>
<line class="grid" x1="272.5" y1="633" x2="272.5" y2="1100"/>
<text class="axis" x="272.5" y="628" text-anchor="middle">200</text>
<line class="grid" x1="350" y1="633" x2="350" y2="1100"/>
<text class="axis" x="350" y="628" text-anchor="middle">240</text>
<line class="grid" x1="427.5" y1="633" x2="427.5" y2="1100"/>
<text class="axis" x="427.5" y="628" text-anchor="middle">280</text>
<line class="grid" x1="505" y1="633" x2="505" y2="1100"/>
<text class="axis" x="505" y="628" text-anchor="middle">320</text>
<rect x="25" y="668" width="11" height="11" rx="2" fill="#35d3a4"/><text class="provider" x="47" y="679">MoQ</text>
<text class="qualifier" x="47" y="699">CMAF over MoQ · self-hosted</text>
<line x1="314.83534375" y1="715" x2="326.854644375" y2="715" stroke="#35d3a4" stroke-width="6" stroke-linecap="round" opacity=".65"/>
<circle cx="314.83534375" cy="715" r="7" fill="#35d3a4" stroke="#0d1d2e" stroke-width="3"/>
<polygon points="326.854644375,707 334.854644375,715 326.854644375,723 318.854644375,715" fill="#35d3a4" stroke="#0d1d2e" stroke-width="2"/>
<text class="metric" x="47" y="747">221.9 / 228.1 / 307.4 ms</text>
<text class="detail" x="47" y="767">P50 / P99 / max · 27,000/27,000 · 0% loss</text>
<text class="detail" x="47" y="786">0 invalid markers · 0 freezes &gt;250 ms · join P50 1,528 ms</text>
<rect x="25" y="786" width="11" height="11" rx="2" fill="#42bff5"/><text class="provider" x="47" y="797">PulseBeam</text>
<text class="qualifier" x="47" y="817">H.264 RTP · 5 Mbps BWE variant</text>
<line x1="356.62237500000003" y1="833" x2="370.12702125000004" y2="833" stroke="#42bff5" stroke-width="6" stroke-linecap="round" opacity=".65"/>
<circle cx="356.62237500000003" cy="833" r="7" fill="#42bff5" stroke="#0d1d2e" stroke-width="3"/>
<polygon points="370.12702125000004,825 378.12702125000004,833 370.12702125000004,841 362.12702125000004,833" fill="#42bff5" stroke="#0d1d2e" stroke-width="2"/>
<text class="metric" x="47" y="865">243.4 / 250.4 / 335.1 ms</text>
<text class="detail" x="47" y="885">P50 / P99 / max · 26,999/27,000 · 0.0037% loss</text>
<text class="detail" x="47" y="904">1 invalid markers · 0 freezes &gt;250 ms · join P50 3,157 ms</text>
<rect x="25" y="904" width="11" height="11" rx="2" fill="#f5a742"/><text class="provider" x="47" y="915">Cloudflare SFU</text>
<text class="qualifier" x="47" y="935">H.264 RTP · managed SFU</text>
<line x1="324.397875" y1="951" x2="346.32309" y2="951" stroke="#f5a742" stroke-width="6" stroke-linecap="round" opacity=".65"/>
<circle cx="324.397875" cy="951" r="7" fill="#f5a742" stroke="#0d1d2e" stroke-width="3"/>
<polygon points="346.32309,943 354.32309,951 346.32309,959 338.32309,951" fill="#f5a742" stroke="#0d1d2e" stroke-width="2"/>
<text class="metric" x="47" y="983">226.8 / 238.1 / 724.2 ms</text>
<text class="detail" x="47" y="1003">P50 / P99 / max · 26,720/27,000 · 1.0370% loss</text>
<text class="detail" x="47" y="1022">228 invalid markers · 14 freezes &gt;250 ms · join P50 4,321 ms</text>
<rect x="25" y="1022" width="11" height="11" rx="2" fill="#c58cff"/><text class="provider" x="47" y="1033">moq.dev CDN</text>
<text class="qualifier" x="47" y="1053">fMP4 over MoQ · public demo CDN</text>
<text class="metric" x="47" y="1092">NO COMPLETED TRIAL</text>
<text class="detail" x="47" y="1118">0/2 completed · transport close + first-frame timeout</text>
<line class="divider" x1="25" y1="1164" x2="515" y2="1164"/>
<text class="detail" x="25" y="1192">Self-hosted MoQ lead: control P99 23.7 ms · media P99 10 ms · moq.dev 0/2 media complete</text>
</g>
<g transform="translate(1205 375)"><rect width="540" height="1220" rx="20" fill="#0d1d2e" stroke="#1c344a" filter="url(#shadow)"/>
<text class="region" x="25" y="42">California → Tokyo</text>
<text class="region-sub" x="25" y="65">asia-northeast1-b · control marks: circle P50 · diamond P99 · end tick max</text>
<text class="section" x="25" y="103">CONTROL · APPLICATION RTT</text>
<text class="axis" x="515" y="103" text-anchor="end">120 Hz · 5 min · log scale</text>
<line class="track" x1="195" y1="130" x2="505" y2="130"/>
<line class="grid" x1="195" y1="123" x2="195" y2="550"/>
<text class="axis" x="195" y="118" text-anchor="middle">50</text>
<line class="grid" x1="249.926984242023" y1="123" x2="249.926984242023" y2="550"/>
<text class="axis" x="249.926984242023" y="118" text-anchor="middle">100</text>
<line class="grid" x1="304.8539684840459" y1="123" x2="304.8539684840459" y2="550"/>
<text class="axis" x="304.8539684840459" y="118" text-anchor="middle">200</text>
<line class="grid" x1="377.4634921210114" y1="123" x2="377.4634921210114" y2="550"/>
<text class="axis" x="377.4634921210114" y="118" text-anchor="middle">500</text>
<line class="grid" x1="432.3904763630344" y1="123" x2="432.3904763630344" y2="550"/>
<text class="axis" x="432.3904763630344" y="118" text-anchor="middle">1000</text>
<line class="grid" x1="505" y1="123" x2="505" y2="550"/>
<text class="axis" x="505" y="118" text-anchor="middle">2500</text>
<rect x="25" y="158" width="11" height="11" rx="2" fill="#35d3a4"/><text class="provider" x="47" y="169">MoQ</text>
<text class="qualifier" x="47" y="189">QUIC datagram · 1,100 B · unreliable</text>
<line x1="250.88528524072677" y1="205" x2="254.72695598346124" y2="205" stroke="#35d3a4" stroke-width="4" stroke-linecap="round" opacity=".58"/>
<circle cx="250.88528524072677" cy="205" r="7" fill="#35d3a4" stroke="#0d1d2e" stroke-width="3"/>
<polygon points="251.2166845833753,197 259.2166845833753,205 251.2166845833753,213 243.2166845833753,205" fill="#35d3a4" stroke="#0d1d2e" stroke-width="2"/>
<line x1="254.72695598346124" y1="195" x2="254.72695598346124" y2="215" stroke="#35d3a4" stroke-width="3"/>
<text class="metric" x="47" y="237">101.2 / 101.6 / 106.2 ms</text>
<text class="detail" x="47" y="257">P50 / P99 / max · 36,000/36,000 · 0% loss</text>
<rect x="25" y="256" width="11" height="11" rx="2" fill="#42bff5"/><text class="provider" x="47" y="267">PulseBeam</text>
<text class="qualifier" x="47" y="287">WebRTC DataChannel · 1,200 B · unordered / 0 retransmits</text>
<line x1="256.9203571226519" y1="303" x2="273.69270780984243" y2="303" stroke="#42bff5" stroke-width="4" stroke-linecap="round" opacity=".58"/>
<circle cx="256.9203571226519" cy="303" r="7" fill="#42bff5" stroke="#0d1d2e" stroke-width="3"/>
<polygon points="268.30188129526385,295 276.30188129526385,303 268.30188129526385,311 260.30188129526385,303" fill="#42bff5" stroke="#0d1d2e" stroke-width="2"/>
<line x1="273.69270780984243" y1="293" x2="273.69270780984243" y2="313" stroke="#42bff5" stroke-width="3"/>
<text class="metric" x="47" y="335">109.2 / 126.1 / 135 ms</text>
<text class="detail" x="47" y="355">P50 / P99 / max · 36,000/36,000 · 0% loss</text>
<rect x="25" y="354" width="11" height="11" rx="2" fill="#f5a742"/><text class="provider" x="47" y="365">Cloudflare SFU</text>
<text class="qualifier" x="47" y="385">WebRTC DataChannel · 1,200 B · unordered / 0 retransmits</text>
<line x1="252.4378317219275" y1="401" x2="355.0094475682597" y2="401" stroke="#f5a742" stroke-width="4" stroke-linecap="round" opacity=".58"/>
<circle cx="252.4378317219275" cy="401" r="7" fill="#f5a742" stroke="#0d1d2e" stroke-width="3"/>
<polygon points="321.7429510963634,393 329.7429510963634,401 321.7429510963634,409 313.7429510963634,401" fill="#f5a742" stroke="#0d1d2e" stroke-width="2"/>
<line x1="355.0094475682597" y1="391" x2="355.0094475682597" y2="411" stroke="#f5a742" stroke-width="3"/>
<text class="metric" x="47" y="433">103.2 / 247.5 / 376.6 ms</text>
<text class="detail" x="47" y="453">P50 / P99 / max · 36,000/36,000 · 0% loss</text>
<rect x="25" y="452" width="11" height="11" rx="2" fill="#c58cff"/><text class="provider" x="47" y="463">moq.dev CDN</text>
<text class="qualifier" x="47" y="483">latest-state groups · 1,100 B · pinned CA ingress</text>
<line x1="266.90585904546776" y1="499" x2="477.31004870553284" y2="499" stroke="#c58cff" stroke-width="4" stroke-linecap="round" opacity=".58"/>
<circle cx="266.90585904546776" cy="499" r="7" fill="#c58cff" stroke="#0d1d2e" stroke-width="3"/>
<polygon points="399.7292752480921,491 407.7292752480921,499 399.7292752480921,507 391.7292752480921,499" fill="#c58cff" stroke="#0d1d2e" stroke-width="2"/>
<line x1="477.31004870553284" y1="489" x2="477.31004870553284" y2="509" stroke="#c58cff" stroke-width="3"/>
<text class="metric" x="47" y="531">123.9 / 662.2 / 1762.7 ms</text>
<text class="detail" x="47" y="551">P50 / P99 / max · 36,000/36,000 · 0% loss · 505 reordered</text>
<line class="divider" x1="25" y1="575" x2="515" y2="575"/>
<text class="section" x="25" y="612">MEDIA · CAPTURE TO DECODE</text>
<text class="axis" x="515" y="612" text-anchor="end">720p30 H.264 · strict 4 Mbps · 5 min/trial</text>
<line class="track" x1="195" y1="640" x2="505" y2="640"/>
<line class="grid" x1="195" y1="633" x2="195" y2="1100"/>
<text class="axis" x="195" y="628" text-anchor="middle">160</text>
<line class="grid" x1="272.5" y1="633" x2="272.5" y2="1100"/>
<text class="axis" x="272.5" y="628" text-anchor="middle">200</text>
<line class="grid" x1="350" y1="633" x2="350" y2="1100"/>
<text class="axis" x="350" y="628" text-anchor="middle">240</text>
<line class="grid" x1="427.5" y1="633" x2="427.5" y2="1100"/>
<text class="axis" x="427.5" y="628" text-anchor="middle">280</text>
<line class="grid" x1="505" y1="633" x2="505" y2="1100"/>
<text class="axis" x="505" y="628" text-anchor="middle">320</text>
<rect x="25" y="668" width="11" height="11" rx="2" fill="#35d3a4"/><text class="provider" x="47" y="679">MoQ</text>
<text class="qualifier" x="47" y="699">CMAF over MoQ · self-hosted</text>
<line x1="265.2246875" y1="715" x2="279.76566375" y2="715" stroke="#35d3a4" stroke-width="6" stroke-linecap="round" opacity=".65"/>
<circle cx="265.2246875" cy="715" r="7" fill="#35d3a4" stroke="#0d1d2e" stroke-width="3"/>
<polygon points="279.76566375,707 287.76566375,715 279.76566375,723 271.76566375,715" fill="#35d3a4" stroke="#0d1d2e" stroke-width="2"/>
<text class="metric" x="47" y="747">196.2 / 203.8 / 280.3 ms</text>
<text class="detail" x="47" y="767">P50 / P99 / max · 27,000/27,000 · 0% loss</text>
<text class="detail" x="47" y="786">0 invalid markers · 0 freezes &gt;250 ms · join P50 916 ms</text>
<rect x="25" y="786" width="11" height="11" rx="2" fill="#42bff5"/><text class="provider" x="47" y="797">PulseBeam</text>
<text class="qualifier" x="47" y="817">H.264 RTP · 5 Mbps BWE variant</text>
<line x1="307.28781250000003" y1="833" x2="323.349765" y2="833" stroke="#42bff5" stroke-width="6" stroke-linecap="round" opacity=".65"/>
<circle cx="307.28781250000003" cy="833" r="7" fill="#42bff5" stroke="#0d1d2e" stroke-width="3"/>
<polygon points="323.349765,825 331.349765,833 323.349765,841 315.349765,833" fill="#42bff5" stroke="#0d1d2e" stroke-width="2"/>
<text class="metric" x="47" y="865">218 / 226.2 / 309.8 ms</text>
<text class="detail" x="47" y="885">P50 / P99 / max · 27,000/27,000 · 0% loss</text>
<text class="detail" x="47" y="904">0 invalid markers · 0 freezes &gt;250 ms · join P50 2,852 ms</text>
<rect x="25" y="904" width="11" height="11" rx="2" fill="#f5a742"/><text class="provider" x="47" y="915">Cloudflare SFU</text>
<text class="qualifier" x="47" y="935">H.264 RTP · managed SFU</text>
<line x1="275.8809375" y1="951" x2="298.38379875" y2="951" stroke="#f5a742" stroke-width="6" stroke-linecap="round" opacity=".65"/>
<circle cx="275.8809375" cy="951" r="7" fill="#f5a742" stroke="#0d1d2e" stroke-width="3"/>
<polygon points="298.38379875,943 306.38379875,951 298.38379875,959 290.38379875,951" fill="#f5a742" stroke="#0d1d2e" stroke-width="2"/>
<text class="metric" x="47" y="983">201.7 / 213.4 / 300.8 ms</text>
<text class="detail" x="47" y="1003">P50 / P99 / max · 26,878/27,000 · 0.4519% loss</text>
<text class="detail" x="47" y="1022">111 invalid markers · 8 freezes &gt;250 ms · join P50 4,309 ms</text>
<rect x="25" y="1022" width="11" height="11" rx="2" fill="#c58cff"/><text class="provider" x="47" y="1033">moq.dev CDN</text>
<text class="qualifier" x="47" y="1053">fMP4 over MoQ · public demo CDN</text>
<line x1="360.49737500000003" y1="1069" x2="382.73832500000003" y2="1069" stroke="#c58cff" stroke-width="6" stroke-linecap="round" opacity=".65"/>
<circle cx="360.49737500000003" cy="1069" r="7" fill="#c58cff" stroke="#0d1d2e" stroke-width="3"/>
<polygon points="382.73832500000003,1061 390.73832500000003,1069 382.73832500000003,1077 374.73832500000003,1069" fill="#c58cff" stroke="#0d1d2e" stroke-width="2"/>
<text class="metric" x="47" y="1101">245.4 / 256.9 / 330.2 ms</text>
<text class="detail" x="47" y="1121">P50 / P99 / max · 9,000/9,000 · 0% loss · 1/2 trials complete</text>
<text class="detail" x="47" y="1140">0 invalid markers · 0 freezes &gt;250 ms · join P50 860 ms</text>
<line class="divider" x1="25" y1="1164" x2="515" y2="1164"/>
<text class="detail" x="25" y="1192">Self-hosted MoQ lead: control P99 24.5 ms · media P99 9.6 ms · moq.dev 1/2 media complete</text>
</g>
<g transform="translate(55 1630)">
<rect x="0" y="0" width="540" height="135" rx="18" fill="#0d1d2e" stroke="#1c344a" filter="url(#shadow)"/>
<rect x="23" y="24" width="10" height="10" rx="2" fill="#35d3a4"/><text class="eyebrow" x="45" y="34">CONTROL</text>
<text class="summary-value" x="23" y="77">Self-hosted MoQ tightest in 3/3</text><text class="summary-detail" x="23" y="108">moq.dev: 108,000/108,000, but severe Frankfurt/Tokyo tails</text>
<rect x="575" y="0" width="540" height="135" rx="18" fill="#0d1d2e" stroke="#1c344a" filter="url(#shadow)"/>
<rect x="598" y="24" width="10" height="10" rx="2" fill="#35d3a4"/><text class="eyebrow" x="620" y="34">VIDEO</text>
<text class="summary-value" x="598" y="77">Self-hosted MoQ retains the lead</text><text class="summary-detail" x="598" y="108">moq.dev public CDN: 4/7 five-minute trials completed</text>
<rect x="1150" y="0" width="540" height="135" rx="18" fill="#0d1d2e" stroke="#1c344a" filter="url(#shadow)"/>
<rect x="1173" y="24" width="10" height="10" rx="2" fill="#42bff5"/><text class="eyebrow" x="1195" y="34">MANAGED MOQ EXTENSION</text>
<text class="summary-value" x="1173" y="77">8/9 media trials complete</text><text class="summary-detail" x="1173" y="108">120 Hz control loss observed in 3/3 corridors</text>
</g>
<g transform="translate(55 1800)"><rect width="1690" height="140" rx="18" fill="#10263a" stroke="#2c4e68"/>
<text class="verdict" x="24" y="33">Verdict: self-hosted MoQ led the matched matrix; hosted-service extensions are reported separately.</text>
<text class="note" x="24" y="61">Control: application RTT at 120 Hz, 5 min/provider/region. moq.dev control used latest-state groups and one pinned California ingress; its multi-edge qualification failed 0/600.</text>
<text class="note" x="24" y="84">Media: capture-to-decoded-frame headless glass-to-glass proxy. moq.dev used per-frame fMP4 at conservative latency-max=100ms; failed attempts count against completion.</text>
<text class="note" x="24" y="107">Do not compare control RTT numerically with one-way media latency. Camera exposure and display scanout are excluded. PulseBeam media is the disclosed 5 Mbps initial-BWE variant.</text>
<text class="note" x="24" y="130">moq.dev is a public unauthenticated demo cluster, not a production SLA relay. Cloudflare Managed MoQ used a separately dated draft-14 extension.</text>
</g>
<text class="note" x="55" y="1970">GCP · 2026-07-18/20 · raw evidence, failures, tuning rejection, and frozen protocol retained</text>
<text class="note" x="1745" y="1970" text-anchor="end">Managed MoQ media: Virginia 2/3 · Frankfurt 3/3 · Tokyo 3/3 · moq.dev: 3/3 · 0/2 · 1/2</text>
</svg>
